<svg xmlns="http://www.w3.org/2000/svg" xmlns:xlink="http://www.w3.org/1999/xlink" width="188.703" height="157.327" viewBox="0 0 188.703 157.327"><defs><clipPath id="a"><rect width="188.703" height="157.327" fill="none"/></clipPath></defs><g transform="translate(0 0)"><g transform="translate(0 0)" clip-path="url(#a)"><path d="M15.792,21.058V125.266c0,2.665,1.709,5.7,4.825,5.7l61.58.076a174.974,174.974,0,0,0,7.836,15.738l-70.871.017C8.334,145.617-.024,137.039,0,125.99L.241,18.678C.263,9.06,9.57.129,19.229.119L126.563,0c10.52-.01,19.69,9,19.744,19.132l.149,28.311a76.426,76.426,0,0,0-15.011.722l-.093-26.2c-.007-1.965-1.809-5.888-4.376-5.888L20.666,16.04a4.7,4.7,0,0,0-4.874,5.018" transform="translate(0 -0.001)" fill="#1a1818"/><path d="M20.6,13.247a10.534,10.534,0,0,1,13.007,7.617C35.1,25.971,31.682,31.9,26.7,33.434a10.429,10.429,0,0,1-13.29-6.856c-1.8-5.649,1.158-11.922,7.19-13.332" transform="translate(18.533 18.567)" fill="#1a1818"/><path d="M17.843,82.9c-3.762,0-5.766-3.123-6.632-5.347-1.285-3.3.012-6.071,1.96-8.836L30.943,43.5c1.378-1.955,5.261-2.9,7.18-2.606,2.514.388,4.684,2.224,6.293,4.447l4.769,6.6,15.794-26.3c2.189-3.645,8.143-3.92,10.772-1.465a24.133,24.133,0,0,1,5.91,9.187C68.476,46.857,62.01,63.892,63.482,82.91Z" transform="translate(15.384 32.449)" fill="#1a1818"/><path d="M133.137,73.018A47.249,47.249,0,1,1,85.889,25.77a47.25,47.25,0,0,1,47.248,47.248M91.428,92.482l-.166-14.007,15.621-.215c2.772-.037,4.849-2.57,5.227-4.81.307-1.814-1.329-5.313-3.665-5.344l-16.821-.222-.254-14.909c-.056-3.277-2.1-5.764-5.091-6.064-1.916-.19-5.539,1.8-5.564,4.467l-.156,16.528-16.218.156c-3.118.029-4.593,3.016-4.391,5.481A5.143,5.143,0,0,0,65.2,78.3l15.358.132.171,16.608c.032,2.994,4.05,4.452,6.144,3.952,2.87-.683,4.6-3.014,4.559-6.507" transform="translate(55.566 37.06)" fill="#1a1818"/></g></g></svg>