<svg xmlns="http://www.w3.org/2000/svg" width="494.01" height="453.699" viewBox="0 0 494.01 453.699"><g transform="translate(0 0)"><path d="M311.89,111.42A113.281,113.281,0,0,0,195.87.03C135.18,1.4,85.92,51.11,85.08,111.81S135.31,226.85,198.5,226.85A113.415,113.415,0,0,0,311.92,113.42c0-.67-.01-1.34-.03-2Zm-44.21,17.54a70.977,70.977,0,0,1-51.65,53.17,70.9,70.9,0,1,1,48.45-94.65,71.242,71.242,0,0,1,3.19,41.48Z"/><path d="M311.89,111.42A113.281,113.281,0,0,0,195.87.03C135.18,1.4,85.92,51.11,85.08,111.81S135.31,226.85,198.5,226.85A113.415,113.415,0,0,0,311.92,113.42c0-.67-.01-1.34-.03-2Zm-44.21,17.54a70.977,70.977,0,0,1-51.65,53.17,70.9,70.9,0,1,1,48.45-94.65,71.242,71.242,0,0,1,3.19,41.48Z"/><path d="M396.99,425.35v6.57c0,11.36-9.27,21.44-20.63,21.77a21.212,21.212,0,0,1-21.9-21.25v-7.09A113.432,113.432,0,0,0,241.03,311.92H155.96A113.42,113.42,0,0,0,42.54,425.34v6.57c0,11.36-9.27,21.45-20.63,21.78A21.215,21.215,0,0,1,0,432.44v-7.09A155.959,155.959,0,0,1,155.96,269.39h85.07A155.9,155.9,0,0,1,396.99,425.35Z"/><path d="M396.99,425.35v6.57c0,11.36-9.27,21.44-20.63,21.77a21.212,21.212,0,0,1-21.9-21.25v-7.09A113.432,113.432,0,0,0,241.03,311.92H155.96A113.42,113.42,0,0,0,42.54,425.34v6.57c0,11.36-9.27,21.45-20.63,21.78A21.215,21.215,0,0,1,0,432.44v-7.09A155.959,155.959,0,0,1,155.96,269.39h85.07A155.9,155.9,0,0,1,396.99,425.35Z"/><path d="M278.29,259.46a93.125,93.125,0,0,0,13.98,3.76Q285.37,261.03,278.29,259.46Z"/><path d="M365.24,301.78a2.905,2.905,0,0,0-2.5,4.91,171.106,171.106,0,0,1,20.05,24.83q3.585,5.415,6.73,11.06a28,28,0,0,0,8.74,9.41,94.287,94.287,0,0,1,41.34,78.1v5.9c0,7.5,5.88,15.38,13.17,17.15a17.716,17.716,0,0,0,22.24-17.15v-5.91A129.9,129.9,0,0,0,365.25,301.77ZM325,77.19a2.942,2.942,0,0,0-3.29,3.67,127.091,127.091,0,0,1,4.18,30.25c.02.76.03,1.54.03,2.32v.21a59.03,59.03,0,1,1-50.89,104.51,3.366,3.366,0,0,0-3.9-.02h0a127.114,127.114,0,0,1-24.45,13.3,4.779,4.779,0,0,0-1.51,7.89,94.215,94.215,0,0,0,33.1,20.16.014.014,0,0,0,.02,0,93.125,93.125,0,0,0,13.98,3.76A94.45,94.45,0,1,0,325,77.21Z" transform="translate(19)"/></g></svg>