<svg xmlns="http://www.w3.org/2000/svg" width="240.379" height="240.378" viewBox="0 0 240.379 240.378"><g transform="translate(0 0)"><path d="M155.878,25.829l2.4,2.412,3.4-.01A50.321,50.321,0,0,1,212.148,78.7l-.01,3.4,2.413,2.4a50.323,50.323,0,0,1,0,71.376l-2.413,2.4.01,3.4a50.321,50.321,0,0,1-50.47,50.471l-3.4-.01-2.4,2.412a50.321,50.321,0,0,1-71.376,0l-2.4-2.412-3.4.01a50.322,50.322,0,0,1-50.471-50.471l.011-3.4-2.413-2.4a50.321,50.321,0,0,1,0-71.376l2.413-2.4-.011-3.4A50.322,50.322,0,0,1,78.7,28.231l3.4.01,2.4-2.412A50.321,50.321,0,0,1,155.878,25.829Z" fill="none" stroke="#040504" stroke-miterlimit="10" stroke-width="21.968"/><path d="M79.331,116.672l30.253,28.585,51.465-59.726" fill="none" stroke="#040504" stroke-miterlimit="10" stroke-width="21.968"/></g></svg>